<svg width="158" height="55" viewBox="0 0 158 55" fill="none" xmlns="http://www.w3.org/2000/svg">
<g opacity="0.4" clip-path="url(#clip0)">
<path d="M20.131 25.5455C23.9397 22.1008 31.7181 9.68794 19.5409 11.8854C14.2301 12.7763 6.45178 18.4779 4.89611 25.0703C4.09145 23.2886 3.17951 21.6256 2.21392 19.9627C0.711886 17.7058 -0.951074 19.4875 0.658242 21.7444C5.42881 28.1391 8.17931 36.0858 8.49025 44.3726C8.86576 40.3933 8.27567 35.5232 6.82729 30.7719C7.52466 31.0095 8.32932 31.1283 9.02669 31.1283C11.4943 35.642 15.303 39.5025 19.5409 41.2842C23.4569 43.0066 28.6604 41.9969 26.5146 35.0481C25.3881 31.2471 22.7595 27.9211 20.131 25.5455ZM20.6674 13.489C27.4265 12.6575 20.1846 21.982 17.8243 23.7043C15.6249 22.1008 12.8354 20.6754 10.1532 21.0911C12.0844 18.2997 16.8051 14.0235 20.6674 13.489ZM10.0996 23.1104C11.9235 22.9322 13.9083 24.0607 15.464 25.2485C13.9619 26.08 12.3526 26.5551 10.6896 26.7333C8.22203 26.7333 7.68559 23.348 10.0996 23.1104ZM19.4336 37.6019C16.2686 36.5923 13.2646 33.7415 11.1188 30.8907C12.889 30.475 14.6593 29.7029 16.2686 28.6338C16.8587 28.3369 17.4488 27.8617 17.9852 27.446C19.8628 29.3465 21.8476 31.9004 22.5986 34.8105C23.3496 37.9583 21.3111 38.1959 19.4336 37.6019Z" fill="#BDC9D7"/>
<path d="M46.6846 17.3855H37.4814C37.1604 17.3855 36.8929 17.6882 36.8929 18.0514H36.8394V34.3951C36.8394 34.7583 37.1069 35.0609 37.4279 35.0609C37.6955 35.0609 37.963 34.7583 38.0165 34.3951V27.0102H45.8285C46.1495 27.0102 46.31 26.7075 46.31 26.4048C46.31 26.0416 46.096 25.86 45.8285 25.86H37.963V18.6567H46.6846C47.0056 18.6567 47.1662 18.3541 47.1662 18.0514C47.1662 17.8698 47.0056 17.6277 46.6846 17.3855ZM50.9116 16.5381H50.8581C50.5906 16.5381 50.4301 16.7802 50.4301 17.0829V34.3346C50.4301 34.6977 50.6441 34.9399 50.9116 34.9399C51.2327 34.9399 51.3932 34.6372 51.3932 34.3346V17.2039C51.3932 16.7802 51.2327 16.5381 50.9116 16.5381ZM64.2348 22.7124C64.2348 22.3492 64.0208 22.107 63.7532 22.107C63.4322 22.107 63.2717 22.4097 63.2717 22.7124V29.9157C63.2717 32.337 61.613 34.274 59.5797 34.2135C57.4394 34.2135 56.2088 32.5186 56.2088 29.8552V22.7124C56.2088 22.3492 55.9948 22.107 55.7272 22.107C55.5132 22.107 55.2457 22.4097 55.2457 22.7124V30.0368C55.2457 33.0634 56.8509 35.3031 59.4727 35.3031C61.0779 35.3636 62.5761 34.3346 63.3252 32.6397V34.5162C63.3252 34.8793 63.5927 35.0609 63.8067 35.0609C64.1278 35.0609 64.2883 34.7583 64.2883 34.5162H64.2348V22.7124ZM73.0634 23.3177C73.2774 23.3177 73.545 23.0756 73.545 22.7729C73.545 22.5308 73.2774 22.2281 73.0634 22.2281H69.6925V18.6567C69.6925 18.3541 69.4249 18.0514 69.2109 18.0514H69.1574C68.8899 18.0514 68.7294 18.3541 68.7294 18.6567V22.2281H67.5522C67.2847 22.2281 67.0707 22.4097 67.0707 22.7124C67.0707 23.015 67.2847 23.3177 67.5522 23.3177H68.7294V31.6711C68.7294 34.0319 70.067 35.182 71.6187 35.182C72.1538 35.182 72.6889 35.0609 73.1704 34.8793C73.3309 34.7583 73.4915 34.5767 73.4915 34.3346C73.4915 34.0319 73.2774 33.8503 73.0634 33.8503C72.6889 33.9714 72.2608 34.0319 71.8328 34.0319C70.5486 34.0319 69.6925 33.366 69.6925 31.5501V23.3177H73.0634ZM81.3569 23.3177C81.6245 23.3177 81.8385 23.0756 81.8385 22.7729C81.8385 22.5308 81.6245 22.2281 81.3569 22.2281H77.986V18.6567C77.986 18.3541 77.772 18.0514 77.5045 18.0514H77.451C77.1834 18.0514 77.0229 18.3541 77.0229 18.6567V22.2281H75.8458C75.6317 22.2281 75.3642 22.4097 75.3642 22.7124C75.3642 23.015 75.6317 23.3177 75.8458 23.3177H77.0229V31.6711C77.0229 34.0319 78.3606 35.182 79.9658 35.182C80.4473 35.182 80.9824 35.0609 81.464 34.8793C81.678 34.7583 81.785 34.5767 81.785 34.3346C81.785 34.0319 81.6245 33.8503 81.3569 33.8503C80.9824 33.9714 80.5543 34.0319 80.1263 34.0319C78.8421 34.0319 77.986 33.366 77.986 31.5501V23.3177H81.3569ZM88.6874 21.8649C85.8515 21.8649 83.7112 24.7705 83.7112 28.584V28.6445C83.7112 32.7002 86.0655 35.3636 88.9014 35.3636C90.3996 35.4241 91.9513 34.6977 92.9679 33.3055C93.1284 33.1844 93.1819 33.0028 93.1819 32.8818C93.1819 32.5791 92.9144 32.2765 92.7004 32.2765L92.3793 32.3975C91.9548 32.9574 91.43 33.4088 90.8396 33.7219C90.2493 34.035 89.6068 34.2025 88.9549 34.2135C86.8681 34.2135 84.9954 32.337 84.7814 29.1893H93.1284C93.3425 29.1893 93.61 28.8867 93.61 28.584C93.61 24.7705 91.6837 21.8649 88.6874 21.8649ZM84.7279 27.9787C84.8884 25.1942 86.5471 23.015 88.6339 23.015C91.0417 23.015 92.3258 25.3758 92.4328 27.9787H84.7279ZM101.797 22.0465C99.8703 22.2281 98.2651 23.7414 97.5695 25.9206V22.7729C97.5695 22.5308 97.3019 22.2281 97.0879 22.2281C96.7669 22.2281 96.6064 22.4097 96.5529 22.7729V34.6372C96.5529 34.9399 96.7669 35.2425 97.0344 35.2425C97.3019 35.2425 97.516 35.0004 97.5695 34.6372V29.9157C97.5695 25.739 99.5492 23.7414 101.797 23.4388H101.85C102.171 23.4388 102.332 23.0756 102.332 22.7729C102.332 22.3492 102.118 22.0465 101.797 22.0465Z" fill="black"/>
<path d="M120.029 21.5748C119.324 21.5748 118.673 22.1794 118.51 23.0258L116.666 29.9179L114.876 23.0258C114.713 22.1794 114.008 21.5144 113.195 21.5144H113.032C112.218 21.5144 111.513 22.0585 111.351 23.0258L109.561 29.797L107.825 22.9653C107.608 22.1794 107.011 21.5144 106.252 21.5144H106.198C105.384 21.5144 104.788 22.3003 104.788 23.2676L104.896 24.1745L107.662 33.6663C107.879 34.6336 108.584 35.2986 109.452 35.3591H109.561C110.374 35.3591 111.025 34.694 111.296 33.7267L113.086 26.9555L114.876 33.7267C115.093 34.694 115.798 35.3591 116.612 35.3591H116.775C117.642 35.3591 118.348 34.694 118.565 33.6663L121.331 24.0536L121.493 23.3281V23.2676C121.493 22.3003 120.843 21.5748 120.029 21.5748ZM128.002 21.5748C126.755 21.5144 125.561 21.8167 124.368 22.2399C123.88 22.4817 123.609 23.0258 123.609 23.6908C123.609 24.5977 124.205 25.2627 124.965 25.2023C125.073 25.2023 125.236 25.2023 125.399 25.0814C126.104 24.8395 126.863 24.7186 127.623 24.7186C129.25 24.7186 130.063 25.565 130.063 27.1974V27.3787C129.196 27.016 128.219 26.8951 127.297 26.8951C124.639 26.8951 122.795 28.2856 122.795 31.248C122.795 33.8476 124.585 35.3591 126.646 35.3591C127.948 35.4195 129.196 34.7545 130.063 33.6663C130.118 34.6336 130.768 35.2986 131.582 35.2986C132.45 35.2986 133.155 34.4522 133.155 33.4244V27.3787C133.209 25.8673 132.775 24.2954 131.908 23.1467C130.985 22.1794 129.738 21.5748 128.002 21.5748ZM130.118 30.3411C130.118 31.7921 129.033 32.699 127.568 32.6385C126.538 32.6385 125.833 32.0339 125.833 31.0062V30.9457C125.833 29.797 126.7 29.0715 128.056 29.0715C128.707 29.0715 129.467 29.3134 130.118 29.6156V30.3411ZM144.166 21.5144C143.515 21.5144 142.864 21.998 142.701 22.8444L140.206 30.6434L137.82 22.9049C137.603 22.0585 137.006 21.5144 136.247 21.5144C135.433 21.5144 134.782 22.2399 134.674 23.2676C134.674 23.5699 134.782 23.8722 134.891 24.1745L138.362 33.6663C138.579 34.6336 139.284 35.2986 140.152 35.3591H140.369C141.128 35.2986 141.888 34.694 142.213 33.7267L145.576 24.2349L145.739 23.3281V23.2676C145.739 22.3003 145.088 21.5144 144.166 21.5144ZM152.573 21.4539C149.264 21.4539 146.986 24.5977 146.986 28.4065V29.0111C147.095 32.699 149.807 35.5404 152.898 35.3591C154.309 35.3591 155.665 34.815 156.804 33.7267C157.129 33.4244 157.238 33.0617 157.238 32.6385V32.578C157.238 31.7316 156.695 31.0666 155.99 31.0666C155.719 31.0666 155.448 31.1271 155.231 31.3689C154.598 31.9757 153.787 32.2989 152.953 32.2758C151.597 32.3362 150.403 31.248 150.241 29.6156H156.587C157.4 29.5552 158.051 28.7088 157.997 27.7415V27.4392C157.997 24.1745 155.556 21.333 152.573 21.4539ZM150.132 27.3787C150.403 25.6255 151.271 24.5372 152.573 24.5372C153.875 24.5372 154.742 25.6859 154.905 27.3787H150.132Z" fill="black" stroke="black"/>
</g>
<defs>
<clipPath id="clip0">
<rect width="157.6" height="55" fill="white" transform="translate(0.399902)"/>
</clipPath>
</defs>
</svg>
